<?xml version="1.0" encoding="UTF-8"?>
<svg id="Layer_1" data-name="Layer 1" xmlns="http://www.w3.org/2000/svg" viewBox="0 0 512 142.57">
  <defs>
    <style>
      .cls-1 {
        fill: #c40b0b;
      }

      .cls-2 {
        fill: #161616;
      }
    </style>
  </defs>
  <g>
    <path class="cls-1" d="M23.66,18.04h14.91V114.85h56.4v14.29H23.66V18.04Z"/>
    <path class="cls-1" d="M107.72,18.04h14.91v111.11h-14.91V18.04Z"/>
    <path class="cls-1" d="M132,129.14L180.56,13.42h.92l48.41,115.72h-17.06l-36.27-92.36,10.6-6.92-40.57,99.27h-14.6Z"/>
  </g>
  <path class="cls-2" d="M270.83,93.04l-8.84-15.37h-4.81v15.37h-6.3V54.62h13.27c2.95,0,5.44,.52,7.49,1.55,2.05,1.03,3.57,2.41,4.59,4.15,1.01,1.73,1.52,3.67,1.52,5.8,0,2.51-.73,4.78-2.18,6.83-1.46,2.05-3.69,3.44-6.72,4.17l9.51,15.92h-7.52Zm-13.65-20.4h6.96c2.36,0,4.14-.59,5.33-1.77,1.2-1.18,1.8-2.76,1.8-4.75s-.59-3.55-1.77-4.67c-1.18-1.12-2.97-1.69-5.36-1.69h-6.96v12.88Zm56.05,7.52h-23.27c.18,2.43,1.09,4.39,2.71,5.86,1.62,1.47,3.61,2.21,5.97,2.21,3.39,0,5.79-1.42,7.19-4.26h6.8c-.92,2.8-2.59,5.1-5,6.88-2.41,1.79-5.41,2.68-8.98,2.68-2.91,0-5.52-.65-7.82-1.96-2.3-1.31-4.11-3.15-5.42-5.53-1.31-2.38-1.96-5.13-1.96-8.26s.64-5.89,1.91-8.26c1.27-2.38,3.06-4.21,5.36-5.5,2.3-1.29,4.95-1.93,7.93-1.93s5.43,.63,7.68,1.88c2.25,1.25,4,3.01,5.25,5.28,1.25,2.27,1.88,4.87,1.88,7.82,0,1.14-.07,2.17-.22,3.1Zm-6.36-5.08c-.04-2.32-.87-4.18-2.49-5.58-1.62-1.4-3.63-2.1-6.02-2.1-2.17,0-4.04,.69-5.58,2.07s-2.47,3.25-2.76,5.61h16.86Zm23.16-11.55c1.84-.96,3.92-1.44,6.25-1.44,2.65,0,5.08,.65,7.27,1.96,2.19,1.31,3.92,3.14,5.17,5.5,1.25,2.36,1.88,5.07,1.88,8.13s-.63,5.8-1.88,8.21c-1.25,2.41-2.98,4.29-5.17,5.64-2.19,1.35-4.62,2.02-7.27,2.02-2.32,0-4.39-.47-6.19-1.41-1.81-.94-3.28-2.11-4.42-3.51v18.9h-6.3V62.58h6.3v4.48c1.07-1.4,2.52-2.58,4.37-3.54Zm12.85,8.71c-.87-1.53-2.01-2.69-3.43-3.48-1.42-.79-2.94-1.19-4.56-1.19s-3.09,.41-4.5,1.22c-1.42,.81-2.56,1.99-3.43,3.54-.87,1.55-1.3,3.37-1.3,5.47s.43,3.93,1.3,5.5c.87,1.57,2.01,2.76,3.43,3.57,1.42,.81,2.92,1.22,4.5,1.22s3.14-.41,4.56-1.24c1.42-.83,2.56-2.04,3.43-3.62,.87-1.58,1.3-3.43,1.3-5.53s-.43-3.92-1.3-5.44Zm13.49-2.68c1.27-2.36,3-4.19,5.2-5.5,2.19-1.31,4.62-1.96,7.27-1.96,2.39,0,4.49,.47,6.27,1.41,1.79,.94,3.21,2.11,4.28,3.51v-4.42h6.36v30.46h-6.36v-4.53c-1.07,1.44-2.52,2.64-4.37,3.59-1.84,.96-3.94,1.44-6.3,1.44-2.62,0-5.01-.67-7.19-2.02-2.17-1.34-3.9-3.22-5.17-5.64-1.27-2.41-1.91-5.15-1.91-8.21s.64-5.77,1.91-8.13Zm21.72,2.76c-.87-1.55-2-2.73-3.4-3.54-1.4-.81-2.91-1.22-4.53-1.22s-3.13,.4-4.53,1.19c-1.4,.79-2.53,1.95-3.4,3.48-.87,1.53-1.3,3.34-1.3,5.44s.43,3.94,1.3,5.53c.87,1.58,2.01,2.79,3.43,3.62,1.42,.83,2.92,1.24,4.5,1.24s3.13-.41,4.53-1.22c1.4-.81,2.53-2,3.4-3.57,.87-1.57,1.3-3.4,1.3-5.5s-.43-3.92-1.3-5.47Zm25.65-8.93c1.53-.87,3.34-1.3,5.44-1.3v6.52h-1.6c-2.47,0-4.34,.63-5.61,1.88-1.27,1.25-1.91,3.43-1.91,6.52v16.03h-6.3v-30.46h6.3v4.42c.92-1.55,2.15-2.75,3.68-3.62Zm10.78,6.16c1.27-2.36,3-4.19,5.2-5.5,2.19-1.31,4.62-1.96,7.27-1.96,2.39,0,4.49,.47,6.27,1.41,1.79,.94,3.21,2.11,4.28,3.51v-4.42h6.36v30.46h-6.36v-4.53c-1.07,1.44-2.52,2.64-4.37,3.59-1.84,.96-3.94,1.44-6.3,1.44-2.62,0-5.01-.67-7.19-2.02-2.17-1.34-3.9-3.22-5.17-5.64-1.27-2.41-1.91-5.15-1.91-8.21s.64-5.77,1.91-8.13Zm21.72,2.76c-.87-1.55-2-2.73-3.4-3.54-1.4-.81-2.91-1.22-4.53-1.22s-3.13,.4-4.53,1.19c-1.4,.79-2.53,1.95-3.4,3.48-.87,1.53-1.3,3.34-1.3,5.44s.43,3.94,1.3,5.53c.87,1.58,2.01,2.79,3.43,3.62,1.42,.83,2.92,1.24,4.5,1.24s3.13-.41,4.53-1.22c1.4-.81,2.53-2,3.4-3.57,.87-1.57,1.3-3.4,1.3-5.5s-.43-3.92-1.3-5.47Zm20.29,19.93c-1.9-.87-3.4-2.05-4.5-3.54-1.11-1.49-1.7-3.16-1.77-5h6.52c.11,1.29,.73,2.37,1.85,3.23,1.12,.87,2.53,1.3,4.23,1.3s3.14-.34,4.12-1.02c.98-.68,1.46-1.56,1.46-2.63,0-1.14-.54-1.99-1.63-2.54s-2.81-1.16-5.17-1.82c-2.29-.63-4.15-1.23-5.58-1.82-1.44-.59-2.68-1.49-3.73-2.71-1.05-1.22-1.58-2.82-1.58-4.81,0-1.62,.48-3.1,1.44-4.45,.96-1.34,2.33-2.4,4.12-3.18,1.79-.77,3.84-1.16,6.16-1.16,3.46,0,6.25,.88,8.37,2.63,2.12,1.75,3.25,4.14,3.4,7.16h-6.3c-.11-1.36-.66-2.45-1.66-3.26-1-.81-2.34-1.22-4.04-1.22s-2.93,.31-3.81,.94c-.88,.63-1.33,1.46-1.33,2.49,0,.81,.29,1.49,.88,2.04s1.31,.99,2.16,1.3c.85,.31,2.1,.71,3.76,1.19,2.21,.59,4.03,1.19,5.44,1.8,1.42,.61,2.64,1.5,3.68,2.68,1.03,1.18,1.57,2.75,1.6,4.7,0,1.73-.48,3.28-1.44,4.64-.96,1.36-2.31,2.43-4.06,3.21-1.75,.77-3.81,1.16-6.16,1.16s-4.54-.43-6.44-1.3Zm24.96-34.85c-.77-.77-1.16-1.73-1.16-2.87s.39-2.1,1.16-2.87c.77-.77,1.73-1.16,2.87-1.16s2.04,.39,2.82,1.16c.77,.77,1.16,1.73,1.16,2.87s-.39,2.1-1.16,2.87c-.77,.77-1.71,1.16-2.82,1.16s-2.1-.39-2.87-1.16Zm5.97,5.2v30.46h-6.3v-30.46h6.3Z"/>
</svg>